<svg width="62" height="62" viewBox="0 0 62 62" fill="none" xmlns="http://www.w3.org/2000/svg">
<path d="M22.4 26.6H24.32V35H22.88L19.64 30.44V35H17.72V26.6H19.16L22.4 31.16V26.6Z" fill="black" fill-opacity="0.3"/>
<path d="M27.6791 33.152H31.0391V35H25.7591V26.6H30.9791V28.448H27.6791V29.84H30.6791V31.664H27.6791V33.152Z" fill="black" fill-opacity="0.3"/>
<path d="M33.8383 35L31.5223 26.6H33.5383L34.9903 32.48L36.6103 26.6H38.1703L39.7903 32.48L41.2423 26.6H43.2583L40.9423 35H38.7583L37.3903 30.044L36.0223 35H33.8383Z" fill="black" fill-opacity="0.3"/>
<path fill-rule="evenodd" clip-rule="evenodd" d="M31 60C47.0163 60 60 47.0163 60 31C60 14.9837 47.0163 2 31 2C14.9837 2 2 14.9837 2 31C2 47.0163 14.9837 60 31 60ZM31 62C48.1208 62 62 48.1208 62 31C62 13.8792 48.1208 0 31 0C13.8792 0 0 13.8792 0 31C0 48.1208 13.8792 62 31 62Z" fill="black" fill-opacity="0.3"/>
</svg>
